<?xml version="1.0" encoding="utf-8"?>
<!-- Generator: Adobe Illustrator 27.0.0, SVG Export Plug-In . SVG Version: 6.00 Build 0)  -->
<svg version="1.1" id="Layer_1" xmlns="http://www.w3.org/2000/svg" xmlns:xlink="http://www.w3.org/1999/xlink" x="0px" y="0px"
	 viewBox="0 0 512 512" style="enable-background:new 0 0 512 512;" xml:space="preserve">
<style type="text/css">
	.st0{fill-rule:evenodd;clip-rule:evenodd;}
	.st1{fill-rule:evenodd;clip-rule:evenodd;fill:#FFFFFF;}
	.st2{fill-rule:evenodd;clip-rule:evenodd;fill:#007934;}
	.st3{fill-rule:evenodd;clip-rule:evenodd;fill:#800326;}
	.st4{fill-rule:evenodd;clip-rule:evenodd;fill:#A71930;}
	.st5{fill-rule:evenodd;clip-rule:evenodd;fill:#284E36;}
</style>
<g>
	<polygon class="st0" points="234.15,237.07 240.21,237.07 240.21,200.33 234.15,200.33 234.15,192.19 273.83,192.19 273.83,207.34 
		265.1,207.34 265.1,200.25 249.34,200.25 249.34,214.43 265.42,214.43 265.42,222.16 249.34,222.16 249.34,237.15 265.18,237.15 
		265.18,230.06 273.91,230.06 273.91,245.21 234.15,245.21 	"/>
	<path class="st0" d="M293.98,213.03c3.39-3.3,7.17-6.27,12.33-6.27c4.19,0,7.25,1.69,9.1,4.5c1.21,1.93,1.85,4.34,1.85,7.23v16.88
		h5.24v7.24h-18.85v-7.24h4.83v-14.71c0-1.45-0.24-2.73-0.73-3.62c-0.81-1.53-2.26-2.33-4.35-2.33c-3.06,0-6.29,1.77-9.11,4.1v16.56
		h4.84v7.24h-18.86v-7.24h5.24V214.8h-5.24v-7.4h13.7V213.03z"/>
	<path class="st0" d="M360.05,242.69c0,4.34-1.13,7.96-3.31,10.61c-2.9,3.54-7.49,5.39-13.21,5.39c-6.12,0-11.36-1.93-13.86-4.42
		c-1.37-1.37-1.93-2.9-1.93-4.58c0-2.49,1.85-4.9,4.75-4.9c2.74,0,4.92,1.93,4.92,4.58l-0.16,1.37c1.45,0.48,3.14,0.89,5.24,0.89
		c3.14,0,5.64-0.97,7.17-3.06c1.05-1.45,1.61-3.46,1.61-6.11v-5.07c-2.66,2.65-5.48,4.5-10.15,4.5c-8.94,0-16.12-6.83-16.12-17.29
		c0-10.05,7.33-17.85,16.52-17.85c4.51,0,7.74,1.77,10.07,3.78v-3.14h13.7v7.4h-5.24V242.69z M334.02,224.52
		c0,6.43,3.95,9.97,9.35,9.97c2.98,0,5.64-1.37,7.89-3.46v-13.99c-2.1-1.61-4.75-2.73-7.89-2.73
		C337.97,214.31,334.02,217.85,334.02,224.52z"/>
	<polygon class="st0" points="364.62,235.37 370.1,235.37 370.1,191.16 364.62,191.16 364.62,183.76 378.88,183.76 378.88,235.37 
		384.12,235.37 384.12,242.61 364.62,242.61 	"/>
	<path class="st0" d="M387.18,233.37c0-6.59,5.8-10.61,14.18-10.61c3.63,0,7.01,0.48,8.95,0.96v-2.81c0-2.09-0.48-3.7-1.37-4.82
		c-1.45-1.85-3.79-2.57-6.93-2.57c-1.53,0-2.66,0.24-3.47,0.56c0.16,0.48,0.32,1.29,0.32,1.77c0,2.65-2.09,4.58-4.75,4.58
		s-4.68-1.85-4.68-4.74c0-4.34,4.43-8.92,14.02-8.92c6.04,0,10.15,1.69,12.65,4.74c1.85,2.25,2.74,5.31,2.74,8.84v15.03h5.24v7.23
		h-13.62v-3.86c-2.82,2.41-7.09,4.5-11.85,4.5C392.58,243.25,387.18,239.96,387.18,233.37 M410.31,233.77v-5.55
		c-2.01-0.48-4.51-0.8-7.25-0.8c-4.27,0-6.85,1.93-6.85,5.15c0,2.81,2.1,4.34,5.24,4.34C404.59,236.9,407.65,235.69,410.31,233.77"
		/>
	<path class="st0" d="M441.41,213.03c3.38-3.3,7.17-6.27,12.33-6.27c4.19,0,7.25,1.69,9.11,4.5c1.21,1.93,1.85,4.34,1.85,7.23v16.88
		h5.24v7.24h-18.85v-7.24h4.83v-14.71c0-1.45-0.24-2.73-0.72-3.62c-0.81-1.53-2.26-2.33-4.35-2.33c-3.06,0-6.29,1.77-9.1,4.1v16.56
		h4.83v7.24h-18.86v-7.24h5.24V214.8h-5.24v-7.4h13.7V213.03z"/>
	<path class="st0" d="M471.23,225.17c0-10.21,7.41-18.41,16.92-18.41c4.51,0,7.82,1.69,9.83,3.38v-18.97h-5.32v-7.39h14.1v51.61H512
		v7.24h-14.02v-3.86c-2.58,2.49-5.88,4.5-10.39,4.5C478.24,243.25,471.23,235.78,471.23,225.17 M497.98,232.16v-15.11
		c-2.34-1.61-5.07-2.73-8.38-2.73c-4.91,0-9.34,3.78-9.34,10.77c0,6.75,4.19,10.61,9.34,10.61
		C492.91,235.69,495.56,234.25,497.98,232.16"/>
	<path class="st0" d="M235.55,304.29h6.04v-36.65h-6.04v-8.12h20.54c12.17,0,20.87,5.22,20.87,16c0,6.83-4.19,12.06-9.99,14.39
		l8.14,14.39h6.04v8.12h-12.25l-10.64-20.1c-1.12,0.08-2.17,0.16-3.22,0.16c-1.69,0-3.22,0-4.35-0.08v11.89h6.61v8.12h-21.76V304.29
		z M267.54,275.84c0-5.55-4.59-8.2-11.93-8.2h-4.91v16.96c0.97,0.08,2.26,0.16,5.16,0.16C262.71,284.76,267.54,281.38,267.54,275.84
		z"/>
	<path class="st0" d="M288.66,308.39c-1.13-1.85-1.77-4.26-1.77-7.08V284.6h-5.24v-7.39h14.02v21.94c0,1.53,0.24,2.65,0.72,3.62
		c0.8,1.52,2.26,2.33,4.35,2.33c3.06,0,6.28-1.77,9.1-4.1v-16.4h-5.48v-7.39h14.26v27.97h5.24v7.23h-13.7v-5.63
		c-3.38,3.29-7.17,6.27-12.32,6.27C293.58,313.05,290.43,311.29,288.66,308.39"/>
	<path class="st0" d="M359.97,312.49c0,4.34-1.13,7.96-3.3,10.61c-2.9,3.54-7.5,5.39-13.22,5.39c-6.13,0-11.36-1.93-13.86-4.42
		c-1.37-1.37-1.94-2.89-1.94-4.58c0-2.49,1.85-4.9,4.76-4.9c2.74,0,4.91,1.93,4.91,4.58l-0.16,1.37c1.45,0.48,3.14,0.89,5.24,0.89
		c3.14,0,5.64-0.97,7.17-3.06c1.05-1.45,1.61-3.46,1.61-6.11v-5.06c-2.66,2.65-5.48,4.5-10.15,4.5c-8.94,0-16.12-6.83-16.12-17.29
		c0-10.05,7.33-17.84,16.52-17.84c4.51,0,7.74,1.77,10.07,3.78v-3.13h13.7v7.39h-5.24V312.49z M333.94,294.33
		c0,6.43,3.95,9.97,9.35,9.97c2.98,0,5.64-1.37,7.89-3.45v-13.99c-2.1-1.61-4.75-2.73-7.89-2.73
		C337.89,284.12,333.94,287.65,333.94,294.33z"/>
	<path class="st0" d="M377.79,309.03l-1.93,3.54h-5.96v-51.61h-5.32v-7.4h14.1v27.49c2.58-2.49,5.88-4.5,10.39-4.5
		c9.35,0,16.36,7.47,16.36,18.08c0,10.21-7.41,18.41-16.92,18.41C383.99,313.05,380.77,311.45,377.79,309.03 M396.4,294.73
		c0-6.75-4.19-10.61-9.35-10.61c-3.3,0-5.96,1.45-8.38,3.54v15.11c2.34,1.6,5.08,2.73,8.38,2.73
		C391.97,305.5,396.4,301.72,396.4,294.73"/>
	<path class="st0" d="M416.16,328.41c-4.67,0-7.57-2.73-7.57-5.55c0-2.97,2.01-4.5,4.35-4.5c2.1,0,3.3,1.28,3.87,2.65
		c0.89-0.24,1.85-0.8,2.82-2.09c0.57-0.72,1.05-1.61,1.61-2.73l2.66-5.55l-12.57-26.05h-4.35v-7.39h18.21v6.99h-5.16l8.14,18.57
		l8.22-18.57h-5.48v-6.99h18.13v7.39h-4.27l-16.52,34.97c-0.81,1.61-1.69,3.06-2.74,4.26C422.92,326.8,419.7,328.41,416.16,328.41"
		/>
	<path class="st1" d="M21.06,191.21c-4.25,5.12-6.97,9.47-7.81,14.49c-0.7,4.26-0.81,15.97,7.82,20.06
		c6.15,2.93,12.39,2.01,12.39,2.01s-8.41,3.08-12.41,9.1c-4.07,6.17-3.42,15-1.11,18.24c-1.32-1.06-5.21-2.05-5.77-0.61
		c-2.05,5.3,3.59,14.79,3.59,14.79c-1.41,0.46-1.86,2.15-1.38,3.84c0.58,2.11,3.05,6.73,3.05,6.73c-1.94-0.19-2.41,2.2-2.31,3.77
		c0.31,4.51,2.57,7.51,5.02,10.28c0.84,0.96-1.31,0.67-1.92,2.58c-0.91,2.85,7.23,8.24,8.02,8.67c4.34,2.45,7.99,3.94,11.62,4.65
		c9.07,1.8,15.43-0.61,20.06-0.45c2.57,0.09,1.35,1.58,1.35,1.58c-0.72,0.29-13.01,8.18-14.78,8.7c-1.83,0.54-2.23-0.35-3.03-0.87
		c-1.59-1.01-2-1.85-3.13-2.84c-1.35-1.17-2.52-2.08-4.31-1.32c-2.98,1.29-2.1,7.52-2.54,9.04c-0.68,2.49-3.73,3.96-9.21,5.82
		c-7.47,2.54-10.55,2.05-15.89,1.3c-5.45-0.75-8.46-0.12-8.38,2.88c0.1,3.56,8.81,6.59,12.94,9.26c4.41,2.82,8.77,6.95,8.77,6.95
		s5.08,4.89,9.63-0.26c7.63-8.64,10.11-11,13.42-13.43c-1.09,0.81,5.22-3.96,6.85-3.68c2.61,0.47,1.5,4.08,1.5,4.08
		c-0.56,2.11-1.24,3.52-2.99,7.15c-2.46,5.06-1.27,11.13-0.72,12.96c0.55,1.8,2.35-0.12,2.92-0.54c0.54-0.38,0.41,2.53,0.47,3.21
		c0.75,7.22,5.16,11.71,6.27,12.68c1.13,0.97,1.13,0.38,1.75-0.38c0.45-0.53,0.74-1.89,0.74-1.89c0.41,0.99,2.68,4,5.22,7.17
		c1.32,1.67,2.51,4.32,3.23,6.5c0.53,1.65,0.57,2.65,1.75,2.31c1.93-0.59,6.51-9.23,6.51-9.23c1.2,1.22,2.54,2.37,3.51,1.4
		c5.82-5.81,7.27-18.33,7.27-19.58c0-1.24,0.29-1.94,1.13-1.54c0.83,0.43,1.54,0.54,1.77-0.41c0.38-1.55,0.91-4.57,0.48-8.6
		l1.71,4.39c1.06,2.61,3.17,5.24,5.75,4.5c1.29-0.37,2.65-1.54,2.65-1.54c1.48,2.24,2.74,3.83,4.26,5.06
		c1.48,1.19,3.58,2.43,4.61,2.14c1.2-0.34,1.63-2.5,1.63-2.5c4.97,6.21,7.39,8.18,14.12,11.29c3.13,1.45,13.75,4.26,12.96,0.64
		c-0.21-1.01-4.58-4.25-6.84-9.15c-1.02-2.25-2.14-6.04-1.46-7.21c0.57-0.98,2.43-0.22,3.57-1.47c0.81-0.9,0.99-2.95-0.17-8.15
		c-0.51-2.35-3.64-7.37-2.55-7.04c2.66,0.78,4.37-0.08,2.73-4.7c-1.4-3.94-3.16-6.03-5.13-8.14c-1.64-1.75-5.01-3.07-3.2-3.33
		c1.77-0.25,3.83,0.43,2.73-3.67c-0.64-2.44-5.49-8.87-13.06-12.23c-8.1-3.59-15.8-2.55-15.8-2.55c4.59-1.35,5.34-1.6,9.11-2.15
		c4.63-0.68,11.09-0.83,18.48,5.24c5.51,4.55,7.95,18.24,9.88,23.5c2.54,6.98,6.31,5.37,6.31,5.37c1.25-0.42,2.13-2.91,2.13-2.91
		c4.44,4.04,5.71,5.48,13.68,9.23c2.8,1.32,7.39,2.36,8.59,1.99c2.22-0.69,0.55-4.26,0.55-4.26c2.06,0.19,4.48,0.01,8.77,3.04
		c5.51,3.89,6.47,9.75,7.08,12.49c2.31,10.23,5.55-1.81,6.11-7.06c1.29-12.37-2.28-17.98-2.28-17.98s1.75,1.17,2.95,1.11
		c1.41-0.06,2.4-1.48,2.32-3.09c-0.38-6.95-6.75-15.27-6.75-15.27c1.55,0.48,2.67,0.68,3.17,0.48c2.61-1.02,1.28-3.67,0.48-4.77
		c-7.18-9.86-16.34-14.86-24.19-17.54c2.61-0.67,4.25-1.83,5.46-3.05c2.31-2.3,3.43-8.88,5.7-10.74c3.18-2.64,10.25-4.34,12.5-7.62
		c2.16-3.15,2.5-7.74,1.1-11.88c-1.37-4.14-0.75-6.29,0.63-9.06c1.37-2.77,9.83-9.02,11.72-16.63c0.79-3.14,1.63-10.7-4.7-14.97
		c-6.49-4.37-18.14-2.43-18.14-2.43s10.57-2.9,12.26-12.38c1.19-6.64-6.36-10.77-6.84-14.41c-0.56-4.02,5.9-9.36,3.13-16.06
		c-2.21-5.32-6.46-6.97-12.92-8.81c-6.45-1.83-8.78-2.25-11.99-6.4c-3.25-4.13-3.67-11.06-6.42-14.29
		c-3.01-3.49-5.55-5.63-11.12-5.58c-3.95,0.06-7.45,1.13-11.97,5.74c-3.79,3.84-5.05,8.63-5.05,8.63s2.03-10.34-0.5-17.04
		c-1.52-4.05-5.01-8.27-12.5-8.31c-5.7-0.02-10.37,2.59-14.39,4.58c-4.96,2.51-7.09,5.21-19.16,1.4
		c-12.9-4.06-22.49-2.35-26.22,1.86c-3,3.39-3.71,7.8-2.9,11.96c0.68,3.63,3.1,7.24,3.1,7.24s-13.21-5.93-22.44-4.09
		c-9.23,1.85-16.39,7.07-17.58,14.82c-0.91,5.95,1.15,10.75,3.24,13.82c2.09,3.05,3.57,7.32,2.65,9.16
		C23.28,188.37,22.33,189.79,21.06,191.21 M81.87,291.43c-3.7,8.57-11,12.88-11,12.88c-0.33-2.5-0.28-4,0.1-6.61
		c0.37-2.55,0.45-8.62-0.7-12.22C73.75,289.21,78.01,290.78,81.87,291.43 M70.48,326.53c-5.38-0.21-7.85-1.79-7.85-1.79
		c8.06-5.38,13.38-8.28,15.68-9.62c2.24-1.3,4.95-2.16,8.44-1.73c2.02,0.25,4.72,1.83,5.21,3.97c0.54,2.37-1.81,5.17-3.9,10.14
		c-0.86,2.1-0.7,4.7-0.28,6.95C84.34,329.38,79.98,326.93,70.48,326.53"/>
	<path class="st2" d="M92.77,313.81c0.54,2.3,0.54,5.95-1.97,10.65c-2.38,4.51-1.45,9.67-0.92,11.7c0.15,0.59,0.63,1,0.82,1.04
		c1.24,0.33,2.16,0.42,2.16,0.42c-0.69,7.16,5.12,14.57,5.95,15.39c0.81,0.82,1.64,0.63,2.63,0.21c0.96-0.41,1.38-0.62,1.38-0.62
		c1.38,2.34,5.12,5.1,6.5,5.65c1.38,0.57,1.52,0.35,2.35-0.19c0.82-0.56,1.65-1.25,1.65-1.25c6.64,9.11,17.45,11.79,20.19,12.28
		c1.53,0.27,1.94-0.83,0.98-2.07c-0.98-1.23-2.7-3.23-3.38-6.81c-1.29-6.49,0-8.81,1.08-9.11c1.14-0.28,1.27-0.83,1.14-2.48
		c-0.49-5.65-2.37-10.22-3.06-11.59c-0.69-1.39,0-1.53,1.11-1.39c1.62,0.21,1.64,0.08,1.37-1.52c-0.89-5.4-6.08-10.35-7.88-11.87
		c-1.8-1.52-1.25-1.67,0.56-1.93c1.73-0.26,1.79-0.56,1.15-2.43c-0.81-2.37-4.27-7.75-11.75-11.07c-7.99-3.55-21.07-1.87-21.07-1.87
		c2.95-1.85,10.14-4.76,15.28-6.02c6.79-1.7,13.95-0.11,18.81,3.47c5.69,4.22,8.46,17.45,10.34,22.66c2.52,6.88,6.52,7.03,6.52,7.03
		c1.25-0.41,1.79-2.24,1.79-2.24c5.54,5.87,15.67,9.27,19.37,9.93c1.36,0.24,2.24,0.3,2.24-0.93c0-1.12,0.16-1.28,0.16-1.28
		c2.03,0.2,4.99,0.36,10.32,3.14c5.36,2.75,7.57,6.62,8.32,8.83c0.73,2.2,2.21,1.27,2.39-0.19c1.5-11.9-1.89-21.44-1.89-21.44
		s1.89,0.24,3,0.24c1.1,0,1.29-0.7,1.1-1.8c-1.32-7.95-6.07-15.48-6.07-15.48c1.55,0.07,2.35,0.23,2.64-0.22
		c0.38-0.59-0.63-2.45-1.04-2.96c-13.86-17.28-30.75-17.61-37.4-17.61c-6.63,0-12.71,1.1-20.84,2.94
		c-8.12,1.84-11.97,0.49-15.31-1.48c-4.21-2.45-5.83-8.6-5.83-8.6c-9.4,10.9-20.7,7.63-20.7,7.63
		c-5.72,8.09-16.43,15.69-16.43,15.69c-1.38-2.66-1.3-7.35-0.93-9.93c0.38-2.58-0.04-7.22-1.12-11.22
		c-1.59-6.07-7.69-11.97-11.17-14.34c-5.53-3.71-15.09-6.02-21.11-6.52c-4.99-0.42-7.72-1.12-10.73-2.19
		c-3.93-1.38-5.69-3.29-6.81-4.39c-1.1-1.11-2.77-0.36-2.57,0.92c0.78,5.09,4.33,11.04,4.33,11.04c-1.1-0.42-1.93,0.82-1.66,1.91
		c1.32,5.31,3.31,8.01,3.31,8.01c-1.93-0.41-2.21,1.52-2.21,2.22c0,5.81,4.01,9.95,4.99,10.77c0.95,0.82,0.54,1.11-0.14,1.37
		c-2.04,0.82-1.69,2.08-1.11,2.76c1.59,1.99,7.75,6.5,11.07,8.01c8.51,3.88,18.82,3.32,23.4,2.9c4.57-0.42,7.87,1.65,7.87,1.65
		c-0.68,0.28-16.2,10.35-17.85,11.2c-1.66,0.82-3.04,0.27-3.88-0.14c-2.43-1.21-4.68-3.74-5.81-4.83c-1.11-1.11-2.07-0.55-2.07,0.68
		c0,1.24-0.27,6.64-0.13,8.01c0.13,1.39-0.83,1.94-1.4,2.2c-16.48,8.24-25.45,5.13-27.92,4.84c-2.52-0.27-4.44-0.27-4.99,1.25
		c-0.55,1.52,0.9,2.82,6.65,5.14c6.83,2.78,11.34,6.16,15.34,8.66c3.11,1.95,4.71,0.29,5.81-0.82c9.01-8.98,18.39-14.6,21.09-16.15
		c0.5-0.28,1.27-0.26,1.5-0.17c2.09,0.91,2.89,2.93,2.89,2.93c0.89,2.89-0.77,4.59-2.52,8.14c-2.4,5-2.86,8.97-2.31,10.78
		c0.57,1.79,1.98,1.26,2.54,0.86c0.53-0.4,0.9-0.15,0.91,0.54c0.06,8.01,4.43,13.08,5.53,14.05c1.11,0.97,1.25,0.97,1.94,0.27
		c0.69-0.69,1.38-2.06,1.38-2.06c0.41,0.97,2.19,5.11,4.69,7.87c2.5,2.76,3.54,6.11,4.15,8.7c0.45,1.85,0.83,2.07,1.82,0.41
		c0.96-1.66,5.18-10.11,5.18-10.11c1.93,1.37,2.28,1.68,3.23,0.72c5.76-5.72,6.17-17.23,6.17-18.47c0-1.23,0-1.37,0.83-0.95
		c0.83,0.41,1.45,0,1.5-0.96c0.14-1.8,1.12-7.32-2.19-14.36c-4.2-8.88-11.09-9.93-20.21-10.36c-10.65-0.49-10.44-2.39-10.44-2.39
		c7.88-4.97,24.48-14.48,26-15.19c1.53-0.68,1.96-1.29,4.57-0.28C89.8,310,92.28,311.68,92.77,313.81"/>
	<path class="st1" d="M132.33,296.31c13.44,2.21,22.65,7.53,31.07,15.71c9.41,9.11,13.84,17.05,18.42,24.78
		c0,0-12.25-15.5-23.05-25.7C147.81,300.71,137.33,297.96,132.33,296.31"/>
	<path class="st1" d="M58.25,327.88c0,0,9.88,1.64,14.22,20.23c3.31,14.25,0.76,24.58,0.76,24.58s0.18-13.09-1.28-19.13
		C67.19,333.89,58.25,327.88,58.25,327.88"/>
	<path class="st1" d="M20.31,262.17c0,0,6.62,11.91,17.73,19.96c10.86,7.89,2.77,2.49,17.57,12.7c9.27,6.38,11.85,8.97,11.85,8.97
		l-8.98-5.41c0,0-9.4-5.49-18.91-12.43C26.82,276.65,20.31,262.17,20.31,262.17"/>
	<path class="st1" d="M94.09,308.3c0,0,8.78,4.76,13.55,24.06c4.02,16.21,16.18,28.33,16.18,28.33s-4.68-2.63-10.72-10.44
		c-6.04-7.78-8.64-23.11-10.43-28.24C99.75,313.74,94.09,308.3,94.09,308.3"/>
	<path class="st3" d="M120.71,130.82c6.49,2.59,9.57,8.13,9.41,15.46c-0.17,8-4,14.22-5.39,15.59c-1.38,1.38-3.06,1.25-5.4,0.42
		c-2.36-0.83-5.39-2.2-9.69-2.2c-4.28,0-8.32,1.77-10.79,4.27c0,0-6.22-0.29-10.5,1.38c-4.29,1.67-5.82,2.64-6.92,3.32
		c0,0-4.52-0.22-8.59-2.21c-4.73-2.31-15.08-9.39-15.08-19.74c0-10.35,8.88-13.98,14.5-13.87c4.42,0.11,8.03,1.16,11.9,2.11
		c3.88,0.97,6.82,1.17,8.75,0.99c2.7-0.24,6.49-0.96,9.4-3.02c2.3-1.63,6.4-3.29,9.54-3.61
		C115.33,129.37,118.64,129.98,120.71,130.82"/>
	<path class="st3" d="M144.65,141.58c7.49,0,11.4,3.52,13.99,10.92c1.1,3.16,2.05,8.89,9.26,10.49c8.93,1.95,13.9,4.77,16.75,9.11
		c2.28,3.47,2.22,8.96,1.23,12.27c-0.96,3.32-1.66,5.39,1.11,8.43c2.39,2.62,4.04,6.9,1.95,12.56c-2.06,5.66-7.64,10.61-18.4,11.19
		c-5.12,0.27-12.46-0.75-12.03-3.31c0.14-0.82,0.62-1.5,2.57-3.69c1.34-1.56,2.26-3.89,2.56-6.11c0.47-3.55-1.25-7.1-4.09-10.18
		c-1.54-1.66-2-3.2-1.03-6.23c0.98-3.04,1.23-4.84,1.23-8.43c0-4.42-2.91-10.13-7.87-11.69c-6.09-1.93-12.75-0.87-18.01,3.69
		c0,0-4.7-3.32-4.7-9.8C129.16,154.27,135.93,141.58,144.65,141.58"/>
	<path class="st4" d="M179.86,224.7c2.79,4.29,3.03,13.66-1.52,21.13c-6.63,10.91-17.08,9.9-17.08,9.9
		c-1.09,15.6-14.58,18.67-21.94,18.67c-19.36,0-19.84-15.22-19.84-16.87c0-1.65-0.98-1.94-1.65-1.4
		c-4.69,3.75-6.92,10.51-7.19,16.03c-0.28,5.52,0.96,9.66,1.94,11.31c3,5.16,7.6,8.14,17.7,5.67c10.09-2.5,19.03-3.37,27.47-2.11
		c8.46,1.25,12.43-1.33,13.91-5.76c1.3-3.98,4.29-7.19,8.63-9.51c12.03-6.34,9.91-15.76,9.08-19.9c-0.83-4.05,1.72-6.04,3.45-8
		c6.76-7.79,8.17-17.82,3.72-23.47c-4.43-5.67-12.69-4.31-17.14-3.59c-2.64,0.41-5.39,1.65-6.51,2.2
		C172.88,219.01,176.75,219.91,179.86,224.7"/>
	<path class="st4" d="M110.21,259.04c-0.21,5.31-2.43,20.78-11.07,25.8c-3.59,2.11-11.63,3.34-19.51,0.31
		c-7.89-3.05-11.64-8.37-13.71-10.64c-3.93-4.39-9.19-9.78-22.13-11.74c-12.2-1.86-22.94-7-21.06-20.29
		c1.6-11.51,12.83-14.2,19.04-14.02c0.9,0.03,2.58,0.75,3.12,1.58c1.51,2.38,4.93,7.21,9.02,9.76c5.55,3.46,12.01,4.6,18.25,4.63
		c0,0,2.94,12.71,13,16.97C93.39,264.87,102.66,263.49,110.21,259.04"/>
	<path class="st4" d="M41.86,150.27c8,0,19.66,4.7,21.58,16.28c0,0-7.96-3.54-12.32,1.93c-3.86,4.85-1.27,10.92-0.29,14.09
		c0.97,3.18,1.76,6.1,0.97,8.83c-0.9,3.07-2.41,5.01-7.75,8.28c-4.64,2.88-5.82,7.75-6.07,10.91c-0.5,5.81,1.53,12,5.94,15.44
		c0,0-6.85,2.67-14.25-0.26c-8.18-3.25-12.73-10.23-12.73-18.91c0-8.71,4.97-13.4,6.65-15.2c1.65-1.79,3.46-4.68,3.46-7.58
		c0-2.89-1.58-5.09-2.35-6.64c-1.32-2.58-2.83-6.86-1.47-12.93C24.31,159.83,29.95,150.27,41.86,150.27"/>
	<path class="st4" d="M55.82,175.4c-1.41,3.75-0.54,6.07,0.71,9.25c1.24,3.18,2.35,7.3-3.06,11.73c-5.4,4.41-10.73,7.76-10.31,16.46
		c0.42,8.69,6.61,20.4,15.01,24.92c6.45,3.5,11.08,3.73,15.92,3.32c0,0,4.23,12.14,14.04,16.33c6.85,2.93,17.41,4,26.92-3.89
		c3.33-2.76,7.26-10.46,6.57-17.22c0,0-11.62,0.96-23.24-3.05c-11.62-4-23.38-12.69-27.11-23.18c-3.73-10.49-5.05-26.52,6.42-38.55
		c0,0-4.5-2.62-9.54-3.05C63.38,168.12,57.76,170.29,55.82,175.4"/>
	<path class="st3" d="M131.1,176.64c-3.12-6.04-9.75-14.38-21.04-13.8c-3.38,0.17-8.03,2.34-9.68,4.41c0,0-5.35-0.13-9.28,0.97
		c-5.04,1.41-10.28,4.45-13.9,10.79c-3.59,6.35-4.91,11.3-4.91,17.51c0,8.72,4.53,19.51,13.14,25.54c1.39,0.96,1.74-0.25,1.45-2.59
		c-0.27-2.35-1.88-11.91,2.64-21.13c5.18-10.6,14.12-17.12,23.92-20.28C119.33,176.15,127.36,176.08,131.1,176.64"/>
	<path class="st4" d="M111.31,181.88c-8.72,4.01-20.8,15.31-21.59,29.69c-0.68,12.68,4.99,20.42,22,21.11
		c17.02,0.68,33.91-11.18,34.59-11.59c0.69-0.41,0.56-1.39-1.39-0.96c-1.93,0.42-13.67,1.94-20.76,1.67
		c-7.05-0.29-14.9-2.49-18.39-7.88C101.96,208.01,100.65,198.03,111.31,181.88"/>
	<path class="st4" d="M138.32,186.02c4.8,5.49,4.13,12.92-0.56,21.21c-4.7,8.28-11.3,10.21-15.58,9.94
		c-4.3-0.28-5.99-0.84-7.96-1.74c0,0,7.78-0.55,12.56-6.17c3.38-3.96,2.93-9.13,0.93-12.52c-1.21-2.03-3.17-3.61-4.62-4.5
		c-3.41-2.11-9.71-2.89-13.02-1.65c0,0,5.26-9.24,15.91-9.24C131.1,181.33,135.27,182.58,138.32,186.02"/>
	<path class="st4" d="M110.22,191.95c-2.49,2.22-4.09,5.81-4.31,8.99c-0.27,3.8,0.97,7.44,4.29,9.37c3.31,1.93,9.17,0.99,11.69-1.35
		c2.83-2.62,2.91-5.87,2.77-6.94c-0.24-1.81-1.54-3.59-4.1-3.07c-2,0.41-3.6,0.35-4.76,0.07
		C114.47,198.72,111.23,197.66,110.22,191.95"/>
	<path class="st3" d="M151.84,170.01c4.84,2.54,5.68,7.45,4.18,12.97c-1.51,5.54-2.36,7.74,1.24,12.43c3.59,4.71,2.08,11.32,0,14.08
		c-2.07,2.76-6.38,7.59-15.08,8.42c-8.72,0.83-10.39-0.42-10.39-0.42s6.16-3.82,10.57-11.45c2.85-4.91,4.37-10.59,2.99-16
		c-2-7.85-10.25-10.09-13.71-10.09c0,0,1.53-6.76,6.66-9.24C143.4,168.22,148.95,168.48,151.84,170.01"/>
	<path class="st4" d="M123.77,233.1c0.99,2.75,2.52,6.81-0.16,12.84c-2.26,5.12-3.05,14.09,3.34,20.14
		c6.37,6.08,16.69,4.64,20.96,2.51c4.98-2.49,6.91-7.31,7.96-12.72c0.51-2.66,1.91-3.65,5.11-3.73c3.22-0.08,9.76-1.1,13.91-7.84
		c3.33-5.37,4.71-13.24,1.32-18.65c-3.8-6.07-13.99-7.64-18.28-7.18c-2.62,0.28-4.57,0.96-6.22,2.49
		C150.06,222.46,140.08,231.58,123.77,233.1"/>
	<path class="st5" d="M125.36,293.68c1.06-0.15,2.19-0.36,3.42-0.63c8.13-1.84,14.22-2.94,20.85-2.94c6.65,0,23.53,0.32,37.4,17.61
		c0.42,0.52,1.42,2.37,1.04,2.96c-0.28,0.45-1.08,0.29-2.64,0.22c0,0,4.75,7.52,6.07,15.48c0.19,1.1,0,1.8-1.1,1.8
		c-1.11,0-3-0.24-3-0.24s3.39,9.53,1.89,21.44c-0.09,0.79-0.56,1.42-1.08,1.48c0,0-3.36-8.94-6.4-14.05
		c-4.61-7.7-9.01-15.67-18.42-24.77c-8.42-8.18-17.63-13.5-31.07-15.71c-2-0.44-10.86-2.4-10.86-2.4
		C122.65,293.93,123.92,293.87,125.36,293.68"/>
	<path class="st5" d="M73.22,372.69c0,0,2.56-12.6-1.12-25.97c-4.86-17.72-13.85-18.84-13.85-18.84s-1.38-0.67-0.89-3.14
		c0,0-0.21,1.9,10.44,2.39c9.12,0.42,16,1.47,20.21,10.36c3.31,7.04,2.33,12.55,2.19,14.35c-0.05,0.96-0.67,1.38-1.5,0.96
		c-0.83-0.42-0.83-0.28-0.83,0.96c0,1.24-0.42,12.74-6.18,18.47c-0.95,0.96-1.3,0.65-3.23-0.72c0,0-4.22,8.45-5.18,10.11
		c-0.66,1.15-1.04,1.4-1.39,0.85C71.89,382.47,72.37,376.81,73.22,372.69"/>
	<path class="st5" d="M16.6,257.41c0,0,1.13-0.65,2.03,0.31c1.1,1.11,2.89,3.01,6.82,4.38c3,1.07,5.74,1.77,10.73,2.19
		c6.02,0.5,15.57,2.8,21.11,6.52c3.48,2.37,9.58,8.27,11.17,14.34c1.08,4,1.5,8.64,1.12,11.22c-0.38,2.58-0.46,7.27,0.93,9.93
		l-3.04-2.5c0,0-2.61-2.57-11.85-8.97c-13.2-9.17-8.66-6.03-17.57-12.7c-2.36-1.76-10.79-8.05-17.74-19.95
		C19.77,261.25,17.66,257.93,16.6,257.41"/>
	<path class="st5" d="M93.76,304.97c0,0,13.07-1.68,21.07,1.87c7.47,3.32,10.94,8.71,11.75,11.07c0.64,1.87,0.58,2.18-1.15,2.43
		c-1.81,0.26-2.36,0.41-0.56,1.93c1.8,1.52,6.99,6.47,7.88,11.87c0.27,1.6,0.25,1.73-1.37,1.52c-1.11-0.14-1.8,0-1.11,1.39
		c0.69,1.37,2.58,5.94,3.06,11.59c0.12,1.65,0,2.2-1.14,2.48c-1.08,0.29-2.38,2.62-1.08,9.1c0.68,3.58,2.4,5.57,3.38,6.81
		c0.61,0.81,0.66,1.54,0.22,1.89c0,0-5.35-2.25-10.89-8.22c0,0-12.35-12.63-16.18-28.33c-4.69-19.3-13.55-24.06-13.55-24.06
		C93.02,307.24,92.33,305.65,93.76,304.97"/>
	<path class="st0" d="M146.67,356.67c0-4.46,3.56-8,8.03-8c4.5,0,8.02,3.54,8.02,8c0,4.44-3.52,7.98-8.02,7.98
		C150.23,364.65,146.67,361.11,146.67,356.67 M147.98,356.67c0,3.77,3.06,6.68,6.73,6.68s6.72-2.91,6.72-6.68
		c0-3.78-3.05-6.71-6.72-6.71S147.98,352.89,147.98,356.67"/>
	<path class="st0" d="M151.41,359.2h0.95v-5.73h-0.95v-1.27h3.21c1.9,0,3.26,0.82,3.26,2.5c0,1.07-0.66,1.89-1.56,2.25l1.27,2.25
		h0.95v1.27h-1.92l-1.66-3.15l-0.51,0.03l-0.68-0.01v1.86h1.03v1.27h-3.4V359.2z M156.41,354.75c0-0.87-0.72-1.28-1.86-1.28h-0.77
		v2.65c0.15,0.01,0.35,0.03,0.81,0.03C155.65,356.15,156.41,355.62,156.41,354.75z"/>
</g>
</svg>
