<?xml version="1.0" encoding="UTF-8" standalone="no"?>
<!-- Generator: Adobe Illustrator 22.0.1, SVG Export Plug-In . SVG Version: 6.00 Build 0)  -->

<svg
   xmlns:dc="http://purl.org/dc/elements/1.1/"
   xmlns:cc="http://creativecommons.org/ns#"
   xmlns:rdf="http://www.w3.org/1999/02/22-rdf-syntax-ns#"
   xmlns:svg="http://www.w3.org/2000/svg"
   xmlns="http://www.w3.org/2000/svg"
   xmlns:sodipodi="http://sodipodi.sourceforge.net/DTD/sodipodi-0.dtd"
   xmlns:inkscape="http://www.inkscape.org/namespaces/inkscape"
   version="1.1"
   id="svg2"
   width="275"
   height="205.38"
   viewBox="0 0 240 205.38"
   enable-background="new 0 0 275 205.38">
<g
   id="g1997"
   transform="matrix(1.0028026,0,0,1.0028026,-3.6065194,-0.02608644)"><g
     transform="matrix(0.83347488,0,0,0.83347488,8.7542948,5.4390095)"
     id="g1099-2-4"><path
       d="m 264.6,40.9 c -5.3,-3.5 -9.4,-8 -11.1,-9 -1.7,-1 -4.1,-2.5 -10.1,-2.5 0,0 -3.2,-4.8 -5.2,-7 -2,-2.2 -5.2,-4.8 -9.9,-6.6 C 223.7,14 217.1,10.8 213.2,7.2 209.3,3.7 207,0.1 197.3,0 c 0,0 3.4,2.3 5.4,5 2,2.7 4.4,7.4 6.8,10.2 2.4,2.7 5.7,5.7 8.9,8 3.3,2.3 5.9,4.9 5.2,6.1 0,0 -11,-1.6 -21,0.7 0,0 4.5,13.6 18,17.7 0,0 0.5,0.1 -0.5,1.6 -0.9,1.5 -12.1,17.6 -27.1,27.3 -15,9.7 -26.1,15.8 -49.9,20.9 0,0 -24.8,3.8 -30.4,5.3 -5.6,1.5 -9.6,3.2 -16.1,10.5 0,0 -1.9,0.5 -5.9,-0.7 -4,-1.1 -6,-1 -11,-0.2 -5,0.8 -8.3,1.8 -15.5,0.6 -7.2,-1.3 -12.1,-3.5 -13.3,-4.2 -0.9,-0.7 1.5,5.7 3.2,8.1 1.7,2.4 5.4,7.3 11.9,7.9 6.5,0.6 10.5,-1.8 13.1,-2.5 2.6,-0.7 4.9,-1.5 8.3,-0.3 2.7,0.9 3.4,0.9 2.8,2.2 -0.6,1.3 -1.9,6.7 -2.5,13.2 -0.6,6.4 -1,10.8 -7.8,14.5 -6.8,3.8 -16.3,6.6 -23.1,4.7 0,0 -5,8.9 -9.9,12.8 -4.9,3.9 -13.3,9.9 -19.1,12.5 -5.9,2.5 -7.2,3.2 -8.6,2.9 L 16.9,188 11.8,187.9 0,205.2 c 0,0 5.3,2.1 12.1,-0.2 6.8,-2.3 28.5,-16 37.6,-22 9.1,-5.9 19.9,-12.9 30.1,-15.4 11.1,-1.8 27.6,-6.9 35.5,-10.1 7.9,-3.2 25.3,-13.3 33.2,-18.9 0,0 1.3,-1.1 3.5,-0.6 3.2,0.3 7.6,1.3 9.3,1 1.7,0.1 16.8,-6.4 20.6,-8.4 3.9,-1.9 21.5,-11.8 24.6,-13.3 3.1,-1.5 5,-2.4 4.2,-1.1 -0.8,1.3 -7.5,8.3 -10.9,10.9 -3.4,2.5 -6.1,5.4 -7.6,4.2 -1.5,-1.1 -0.8,-2 -4.8,0.3 -3.1,1.8 -17.2,9.8 -17.2,9.8 0,0 11.3,4.7 19.3,3.8 7.9,-0.9 11.8,-3.4 16.5,-6.6 4.6,-3.2 12.5,-10.2 14.6,-12.7 2,-2.5 6.3,-8 9.1,-12 2.7,-4.1 10.2,-18.1 10.8,-19.6 0,0 -0.2,0 -17.7,0 0,0 9.2,-12.9 12,-18.3 2.8,-5.4 8.2,-16.8 8.5,-18.1 0.3,-1.3 0.6,-0.8 4,-0.6 3.4,0.2 11.3,-0.3 14.2,-0.9 3.4,-0.6 8.3,-1.9 10.6,-2.4 0,0 2.1,-1.5 2.9,-3.1 v -4.8 c 0,0.1 -5.1,-1.6 -10.4,-5.2"
       id="path1093-7-6"
       inkscape:connector-curvature="0" /><path
       class="st0"
       d="m 215.2,35.9 c 0,0 14.1,0.6 14.6,1 0.5,0.4 4,6.5 4,6.5 0,0 -10.6,0.1 -18.6,-7.5 m 26.4,1.1 c 0,0 0,0 0,0 -1.3,-1.6 -8,-9.5 -8,-9.5 -2.1,-3.1 -6.5,-7.8 -7.3,-8.5 -0.4,-0.3 -0.9,-0.5 -1.5,-0.8 -5.3,-2.5 -9.6,-5.6 -11.1,-6.8 -1.3,-1 -7.3,-6.3 -9,-8.1 1.6,2.3 7.9,11.8 15.4,16.7 8.9,6 10.3,10.9 10.6,14 0,0 -10.3,-3.7 -22.4,-1.1 0,0 -0.1,6.4 17.9,14.1 0,0 -9.6,16.6 -22.1,27 -12.5,10.4 -24.9,18.2 -44.9,24.1 -20,5 -34.4,6.2 -40,7.4 -5.6,1.3 -14.2,2.9 -19.8,11.8 0,0 -2.2,0.3 -7.5,-0.9 -5.1,-1.2 -8,-2 -14.2,-0.2 -0.2,0.1 -2.9,1.6 -6.3,3.2 -3.3,1.7 -6,1.8 -6.1,1.8 1.6,0.5 5,1 9,-0.2 5.7,-1.8 5.2,-2.5 9.2,-2.5 4,0 4.6,-0.2 12.6,3.4 0,0 -2.7,5.6 -3.6,12.9 -0.9,7.3 -0.3,14.6 -9.4,20.1 -9.1,5.5 -21.1,6.2 -23.9,5.8 0,0 -3.4,8.8 -18.5,17.7 -15.1,8.9 -18.1,8.6 -19,9.1 -0.9,0.6 -1.7,3.1 -2.4,3.7 l -5.6,-0.3 c 0,0 -7.2,9.6 -7,10.3 0.2,0.7 5.4,1.3 17.4,-5.9 12,-7.2 22.7,-15.2 29.6,-19.2 6.9,-4 15.1,-8.5 20,-10.3 5,-1.8 18.5,-4.4 23.4,-6.1 0,0 5.8,-2.7 11.3,-11.9 v 0 c 0,0 5.3,-13.3 8,-19.5 2.7,-6.2 4.5,-6.5 10.5,-6.2 6,0.3 15.3,-1.2 26.5,-3.7 11.2,-2.5 23.4,-10.5 25.3,-11.8 1.9,-1.3 3.3,-1.5 3.9,-1.5 0.6,0 3,0.5 3,0.5 l 19.5,4.1 -1.5,0.1 c 0.3,0 0.5,0 0.8,0 l 13.4,-0.5 c 0,0 0,0 -0.1,0 0,0 0.1,0 0.1,0 0,0 -3.7,15.3 -24.9,26.9 0,0 -2,-1.7 -2.8,-2.1 -0.8,0.1 -11.6,6 -10.8,6.4 0.8,0.5 9.9,3.2 18,-0.6 8.2,-3.8 19.1,-11.9 26.2,-23 7,-11.1 8.9,-14 11.3,-19.2 0,0 -10.7,0.3 -18,0.1 -1.9,0.1 -3.2,0.1 -4.1,0.1 0.2,-0.2 0.5,-0.4 0.9,-0.8 -0.6,0.5 -0.9,0.8 -0.9,0.8 H 212 c 0,0 0,0 0,0 v 0 c 0,0 -7.3,-0.4 -7.6,-4.7 -0.3,-4.2 4.8,-7.3 11.2,-14.5 6.5,-7.2 17.9,-23.5 17.9,-23.5 0,0 -0.7,1.1 -1.8,3 3.7,-6.1 5.3,-10.1 5.3,-10.1 1.7,-4.4 3.9,-4.9 5.4,-5.1 1.4,-0.2 3.6,-0.1 4.1,-0.1 z"
       id="path1095-4-1"
       inkscape:connector-curvature="0"
       style="fill:#ffc425" /><path
       class="st1"
       d="m 71.4,119.3 c 3.5,-1.7 6.3,-3.2 6.3,-3.2 l -3,0.5 c 0,0 -8.9,1.9 -18.5,-2.6 0,0 0.5,2.2 3.2,4.4 1.3,1.1 3.3,2.1 6,2.9 -0.1,-0.2 2.7,-0.3 6,-2 m 146.4,-9.9 -13.4,0.5 c -0.3,0 -0.5,0 -0.8,0 l -16.9,1.4 c -27.8,16.2 -55.1,16.4 -60.8,16.7 -5.7,0.3 -6.4,2.7 -7.1,3.4 -0.2,0.2 -1.3,1.9 -2.7,4.1 -1.6,2.7 -3.6,5.9 -6,9.5 -1,1.7 -1.7,2.8 -1.7,2.8 v 0 c -5.5,9.2 -11.3,11.9 -11.3,11.9 14.3,-3.9 30.4,-12.7 34.9,-15.3 4.5,-2.6 14.4,-10.1 15.2,-10.6 0.8,-0.6 12.8,1 14.8,1 2,0 23.7,-11 31.4,-15.1 7.8,-4.2 24.4,-10.3 24.4,-10.3 m -4.2,-12.2 c 0,0 0,0 0,0 -0.1,0.1 -0.1,0.1 -0.1,0.1 0,0 0.1,0 0.1,-0.1 m 58.9,-49.9 c -1.6,-0.7 -7.7,-3.3 -11.5,-6 -4.4,-3.2 -6.6,-6.4 -10.4,-7.7 -3.9,-1.3 -8,-1.1 -8.6,-1 0,0 -5.5,-10.1 -15.8,-13.8 0,0 0,0 0,0.1 0,0 0.1,0 0.1,0 0.7,0.7 5.1,5.4 7.3,8.5 0,0 6.7,7.9 8.1,9.5 0.2,0 2.2,-0.2 4,0 1.9,0.2 4.4,2.4 7.7,5 3.1,2.5 10,5.4 10.7,5.7 v 0 c 0,0 0,0 0,0 0,0 0,0 0,0 v 0 c 0,0 0,0 0,0 -0.7,0.3 -1.6,0.3 -2.7,0.1 -4.7,-0.6 -11.5,-4.5 -12.5,-4.6 -1.1,-0.2 -2.1,-0.1 -2.4,-0.1 v 0 c 0,0 0,0 -0.1,0 0,0 0,0 0,0 v 0 c -0.4,0 -2.7,0 -4.1,0.1 -1.5,0.2 -3.6,0.7 -5.4,5.1 0,0 -1.9,4.5 -6,11.2 -2.4,4 -8.8,14.4 -13.6,20.2 -4.9,5.7 -9.1,12.3 -8.1,15.2 1,3 2.7,3.1 2.7,3.1 h 0.6 0.1 c 0,0 0,0 0,0 0,0 0.3,-0.3 0.9,-0.8 3.4,-3.1 16.3,-15.7 27.8,-41.8 0,0 0.2,-0.5 -3.3,-6.1 0,-0.1 0,-0.1 0.1,-0.2 1.2,1.2 4.3,4.1 6.8,4.7 0.2,0.1 0.5,0.1 0.7,0.1 0.7,0.2 1.9,0.5 3.7,0.6 0,0 0.1,-0.1 0.1,-0.1 0,0 -0.1,0.1 -0.2,0.1 2.2,0.2 5.3,0.3 8.9,-0.3 8,-1.2 12.3,-2.7 12.3,-2.7 0,0 -0.9,-1.6 -3.4,-2.7 0,0 0,0 0,0 3.5,1.2 5.5,-1 5.5,-1.4"
       id="path1097-6-1"
       inkscape:connector-curvature="0"
       style="fill:#ffffff" /></g><g
     id="text1865"
     style="font-style:italic;font-variant:normal;font-weight:normal;font-stretch:normal;font-size:28.83219528px;line-height:1.25;font-family:'Friz Quadrata';-inkscape-font-specification:'Friz Quadrata, Italic';font-variant-ligatures:normal;font-variant-caps:normal;font-variant-numeric:normal;font-feature-settings:normal;text-align:start;letter-spacing:0px;word-spacing:0px;writing-mode:lr-tb;text-anchor:start;fill:#000000;fill-opacity:1;stroke:none;stroke-width:0.72080487"><path
       id="path1961"
       style="stroke-width:0.72080487"
       d="m 47.922489,182.56955 q -0.778469,-0.63431 -1.383946,-1.06679 -0.605476,-0.43249 -1.18212,-0.69198 -0.547811,-0.25949 -1.095623,-0.37482 -0.547812,-0.11532 -1.153288,-0.11532 -1.095623,0 -1.729931,0.49014 -0.634309,0.46132 -0.634309,1.26862 0,0.43248 0.115329,0.77847 0.115329,0.31715 0.461315,0.74964 0.374819,0.40365 1.037959,0.98029 0.663141,0.57664 1.787596,1.47044 0.893798,0.72081 1.499274,1.35512 0.634309,0.60547 0.980295,1.23978 0.374819,0.63431 0.51898,1.32628 0.172993,0.66314 0.172993,1.47044 0,1.52811 -0.605476,2.82556 -0.605476,1.26862 -1.7011,2.22008 -1.066791,0.92263 -2.566065,1.47044 -1.499274,0.51898 -3.258038,0.51898 -3.315703,0 -5.766439,-1.15329 l -0.547812,-4.123 q 0.951462,0.7208 1.729932,1.21095 0.778469,0.49015 1.470442,0.8073 0.691972,0.28832 1.355113,0.43248 0.66314,0.14416 1.355113,0.14416 1.383945,0 2.220079,-0.66314 0.836134,-0.69197 0.836134,-1.78759 0,-0.46132 -0.115329,-0.83614 -0.115329,-0.37481 -0.461315,-0.8073 -0.317154,-0.43248 -0.951463,-0.98029 -0.605476,-0.57665 -1.614603,-1.41278 -0.951462,-0.77847 -1.58577,-1.44161 -0.634309,-0.66314 -1.037959,-1.29745 -0.374819,-0.63431 -0.547812,-1.29745 -0.144161,-0.66314 -0.144161,-1.41277 0,-1.41278 0.547812,-2.56607 0.576644,-1.15329 1.614603,-1.96059 1.037959,-0.83613 2.508401,-1.26862 1.499274,-0.43248 3.315702,-0.43248 1.355113,0 2.450737,0.23066 1.124455,0.23066 2.335407,0.7208 z"
       inkscape:connector-curvature="0" /><path
       id="path1963"
       style="stroke-width:0.72080487"
       d="m 55.507159,193.66994 q -0.172994,0.77847 -0.288322,1.44161 -0.0865,0.66314 -0.0865,1.06679 0,0.49015 0.144161,0.86497 0.172993,0.37482 0.66314,1.03796 h -8.303672 q 0.51898,-0.40365 0.893798,-0.77847 0.374819,-0.40365 0.634309,-0.8938 0.259489,-0.49015 0.461315,-1.12445 0.201825,-0.66315 0.40365,-1.61461 l 2.479569,-11.21572 q 0.374819,-1.67227 0.374819,-2.5084 0,-0.46132 -0.172993,-0.8073 -0.144161,-0.37482 -0.634309,-1.09563 h 7.179217 q 1.326281,0 2.248911,0.0577 0.951463,0.0288 1.643435,0.14416 0.691973,0.0865 1.18212,0.28832 0.51898,0.17299 0.951463,0.43248 0.807301,0.49015 1.239784,1.44161 0.461315,0.95147 0.461315,2.16242 0,1.47044 -0.518979,2.71022 -0.490148,1.21096 -1.412778,2.10475 -0.92263,0.86497 -2.220079,1.35512 -1.268616,0.49014 -2.825555,0.49014 -0.92263,0 -1.614603,-0.11532 -0.691973,-0.14417 -1.528106,-0.49015 0.92263,-0.0577 1.470442,-0.25949 0.576644,-0.20183 1.037959,-0.63431 0.778469,-0.77847 1.239784,-2.07592 0.461315,-1.29745 0.461315,-2.68139 0,-2.53724 -2.162414,-2.53724 H 58.41921 Z"
       inkscape:connector-curvature="0" /><path
       id="path1965"
       style="stroke-width:0.72080487"
       d="m 74.401709,187.41336 q 0.201825,0.0577 0.317154,0.0865 0.144161,0.0288 0.374818,0.0288 0.807302,0 1.470442,-0.34598 0.691973,-0.37482 1.18212,-1.00913 0.490148,-0.66314 0.77847,-1.5281 0.288322,-0.8938 0.288322,-1.93176 0,-2.13358 -2.62373,-2.13358 h -0.25949 z m -9.139806,10.66791 q 0.518979,-0.40365 0.893798,-0.77847 0.374818,-0.40365 0.634308,-0.8938 0.25949,-0.49015 0.461315,-1.12445 0.201826,-0.66315 0.403651,-1.61461 l 2.479569,-11.21572 q 0.374818,-1.6146 0.374818,-2.5084 0,-0.46132 -0.172993,-0.8073 -0.144161,-0.37482 -0.634308,-1.09563 h 7.842357 q 1.931757,0 3.142709,0.173 1.210953,0.17299 1.96059,0.54781 0.92263,0.49014 1.470442,1.55694 0.547811,1.03796 0.547811,2.3354 0,1.26862 -0.490147,2.47957 -0.461315,1.18212 -1.210952,1.90293 -0.663141,0.60547 -1.44161,0.86496 -0.778469,0.25949 -2.075918,0.28833 l 1.066791,2.30657 q 0.92263,1.98942 1.556939,3.28687 0.66314,1.29745 1.153288,2.16242 0.518979,0.83613 0.893798,1.32628 0.40365,0.46131 0.836133,0.8073 -0.66314,0.0865 -1.066791,0.11533 -0.403651,0.0288 -0.691973,0.0577 -0.288322,0.0288 -0.547811,0.0288 -0.230658,0 -0.605476,0 -1.470442,0 -2.450737,-0.23065 -0.951463,-0.25949 -1.585771,-0.83614 -0.288322,-0.25949 -0.547812,-0.60547 -0.259489,-0.34599 -0.547811,-0.86497 -0.25949,-0.51898 -0.576644,-1.26862 -0.317154,-0.77847 -0.749637,-1.87409 l -1.470442,-3.83468 -1.095624,4.90147 q -0.201825,0.95146 -0.288322,1.52811 -0.0865,0.54781 -0.0865,0.98029 0,0.49015 0.144161,0.86497 0.172993,0.37482 0.66314,1.03796 z"
       inkscape:connector-curvature="0" /><path
       id="path1967"
       style="stroke-width:0.72080487"
       d="m 84.802472,198.08127 q 0.51898,-0.40365 0.864966,-0.77847 0.374819,-0.40365 0.634308,-0.8938 0.288322,-0.49015 0.490148,-1.12445 0.201825,-0.66315 0.40365,-1.61461 l 2.479569,-11.21572 q 0.374819,-1.6146 0.374819,-2.5084 0,-0.46132 -0.172993,-0.8073 -0.144161,-0.37482 -0.634309,-1.09563 h 8.303672 q -0.518979,0.40365 -0.893798,0.8073 -0.374818,0.37482 -0.634308,0.86497 -0.25949,0.49015 -0.461315,1.15329 -0.201825,0.63431 -0.403651,1.58577 l -2.479569,11.21572 q -0.201825,0.8073 -0.288321,1.47044 -0.0865,0.63431 -0.0865,1.03796 0,0.49015 0.144161,0.86497 0.172993,0.34599 0.66314,1.03796 z"
       inkscape:connector-curvature="0" /><path
       id="path1969"
       style="stroke-width:0.72080487"
       d="m 113.85271,198.08127 q -0.46131,0.11533 -0.86497,0.14416 -0.40365,0.0577 -0.92263,0.0577 -1.23978,0 -2.13358,-0.23065 -0.8938,-0.23066 -1.6146,-0.86497 -0.72081,-0.66314 -1.38395,-1.7876 -0.6343,-1.15328 -1.38394,-2.94088 l -3.34454,-7.87119 -2.01825,9.08214 q -0.201825,0.92263 -0.288322,1.52811 -0.0865,0.57664 -0.0865,0.98029 0,0.49015 0.144161,0.86497 0.173001,0.37482 0.663141,1.03796 h -5.881768 q 0.51898,-0.40365 0.864966,-0.77847 0.374818,-0.40365 0.634308,-0.8938 0.288322,-0.49015 0.490147,-1.12445 0.201826,-0.66315 0.403651,-1.61461 l 2.479569,-11.21572 q 0.374819,-1.6146 0.374819,-2.5084 0,-0.51898 -0.201826,-0.95146 -0.172993,-0.43249 -0.66314,-0.95147 h 6.573744 q 0.11533,0.40365 0.34599,1.09563 0.23065,0.69197 0.54781,1.47044 l 4.35366,10.52375 1.93176,-8.67849 q 0.37481,-1.7011 0.37481,-2.5084 0,-0.49015 -0.17299,-0.83614 -0.14416,-0.37481 -0.63431,-1.06679 h 5.88177 q -0.51898,0.40365 -0.8938,0.8073 -0.34598,0.37482 -0.63431,0.86497 -0.25949,0.49015 -0.46131,1.15329 -0.20183,0.63431 -0.40365,1.58577 l -3.02738,13.69529 z"
       inkscape:connector-curvature="0" /><path
       id="path1971"
       style="stroke-width:0.72080487"
       d="m 135.21421,182.9732 q -0.8938,-1.23979 -2.10475,-1.84526 -1.21095,-0.60548 -2.85439,-0.60548 -1.55693,0 -2.85438,0.63431 -1.29745,0.63431 -2.24892,1.81643 -0.92263,1.15329 -1.4416,2.79672 -0.49015,1.6146 -0.49015,3.60403 0,2.96971 1.21095,4.67081 1.23978,1.67227 3.4022,1.67227 0.23066,0 0.40365,0 0.17299,-0.0288 0.40365,-0.0865 l 0.72081,-3.20037 q 0.17299,-0.86497 0.25949,-1.32628 0.11532,-0.46132 0.14416,-0.72081 0.0577,-0.28832 0.0577,-0.43248 0.0288,-0.17299 0.0288,-0.40365 0,-0.49015 -0.23065,-0.86497 -0.20183,-0.40365 -0.77847,-0.92263 h 7.4387 q -0.25949,0.43249 -0.43248,0.72081 -0.14416,0.28832 -0.25949,0.63431 -0.11533,0.34598 -0.25949,0.86496 -0.11533,0.49015 -0.28832,1.32628 l -0.63431,2.82556 q -0.34599,1.6146 -0.34599,2.53723 0,0.31715 0.11533,0.77847 -1.41278,0.49015 -3.25804,0.74964 -1.84526,0.28832 -3.80585,0.28832 -4.64198,0 -7.17921,-2.27774 -2.53724,-2.27775 -2.53724,-6.48725 0,-2.96971 1.26862,-5.53578 1.29745,-2.5949 3.57519,-4.23833 3.22921,-2.30658 8.01535,-2.30658 1.58577,0 2.88322,0.20183 1.29745,0.20182 2.6814,0.66314 z"
       inkscape:connector-curvature="0" /><path
       id="path1973"
       style="stroke-width:0.72080487"
       d="m 143.28948,195.14038 q 0.46131,0.14417 0.77847,0.20183 0.31715,0.0288 0.74963,0.0288 1.7011,0 2.71023,-0.95146 1.03796,-0.9803 1.03796,-2.62373 0,-1.41278 -0.8938,-2.22008 -0.8938,-0.83613 -2.45074,-0.83613 -0.14416,0 -0.25949,0 -0.11532,0 -0.28832,0.0577 z m 1.96059,-8.99564 q 0.23065,0.0288 0.40365,0.0577 0.20182,0 0.34598,0 1.47045,0 2.36424,-1.06679 0.92263,-1.06679 0.92263,-2.73906 0,-1.03795 -0.57664,-1.47044 -0.57664,-0.46131 -1.87409,-0.46131 h -0.31716 z m 2.59489,-8.10185 q 1.21096,0 1.90293,0.0288 0.69197,0 1.12445,0.0288 0.46132,0.0288 0.77847,0.0865 0.31716,0.0577 0.72081,0.173 1.21095,0.34598 1.87409,1.29745 0.69197,0.95146 0.69197,2.24891 0,1.21095 -0.46131,2.36424 -0.46132,1.12445 -1.21095,1.84526 -0.57665,0.57664 -1.26862,0.86496 -0.69197,0.28833 -1.81643,0.49015 4.03651,0.43248 4.03651,4.41133 0,1.78759 -0.86497,3.25803 -0.83613,1.44161 -2.24891,2.10475 -0.60547,0.28833 -1.12445,0.46132 -0.51898,0.14416 -1.32628,0.23066 -0.77847,0.0865 -1.98943,0.11533 -1.18212,0.0288 -3.11387,0.0288 h -7.72703 q 0.51898,-0.40365 0.8938,-0.77847 0.37482,-0.40365 0.6343,-0.8938 0.25949,-0.49015 0.46132,-1.12445 0.20183,-0.66315 0.40365,-1.61461 l 2.47957,-11.24455 q 0.37482,-1.61461 0.37482,-2.47957 0,-0.46132 -0.173,-0.8073 -0.14416,-0.37482 -0.6343,-1.09563 z"
       inkscape:connector-curvature="0" /><path
       id="path1975"
       style="stroke-width:0.72080487"
       d="m 167.83154,180.32064 q -2.16242,0 -3.71935,3.54636 -0.31716,0.74963 -0.57665,1.64343 -0.25949,0.8938 -0.46131,1.87409 -0.173,0.9803 -0.28833,1.98943 -0.0865,0.98029 -0.0865,1.90292 0,2.10475 0.7208,3.3157 0.74964,1.21095 2.04709,1.21095 2.39307,0 3.83468,-3.77701 0.28832,-0.72081 0.51898,-1.58577 0.23066,-0.8938 0.40365,-1.84526 0.17299,-0.95147 0.25949,-1.90293 0.11533,-0.98029 0.11533,-1.84526 0,-4.52665 -2.76789,-4.52665 z m 0.63431,-2.6814 q 3.92118,0 6.05476,2.19125 1.90292,1.90292 1.90292,5.88177 0,2.85438 -0.83613,5.21862 -0.83613,2.36424 -2.36424,4.03651 -1.49928,1.67227 -3.63286,2.5949 -2.10475,0.92263 -4.69965,0.92263 -3.89234,0 -5.96826,-2.07592 -2.04709,-2.07592 -2.04709,-6.02593 0,-1.35511 0.23066,-2.68139 0.23066,-1.32628 0.63431,-2.53724 0.43248,-1.21095 1.03796,-2.27774 0.60548,-1.06679 1.38394,-1.93176 2.96972,-3.3157 8.30368,-3.3157 z"
       inkscape:connector-curvature="0" /><path
       id="path1977"
       style="stroke-width:0.72080487"
       d="m 198.35087,178.04289 q -0.28832,0.25949 -0.57664,0.51898 -0.25949,0.23066 -0.51898,0.46132 l -1.03796,0.98029 -7.00623,6.60257 1.23979,2.27775 q 0.60547,1.09562 1.21095,2.22008 0.63431,1.09562 1.23979,2.22008 1.18212,2.16241 2.04708,3.28687 0.86497,1.09562 1.67227,1.44161 -0.66314,0.14416 -1.15329,0.20182 -0.46131,0.0865 -0.86497,0.14416 -0.40365,0.0577 -0.77846,0.0577 -0.37482,0.0288 -0.83614,0.0288 -2.88322,0 -3.97884,-1.09562 -0.23066,-0.20183 -0.37482,-0.37482 -0.11533,-0.173 -0.34599,-0.54781 -0.20182,-0.37482 -0.57664,-1.0668 -0.34599,-0.7208 -0.98029,-2.01825 l -2.07592,-4.15184 -0.9803,4.44016 q -0.20182,0.8073 -0.28832,1.47044 -0.0865,0.63431 -0.0865,1.03796 0,0.49015 0.14417,0.86497 0.17299,0.34599 0.66314,1.03796 h -8.30368 q 0.51898,-0.40365 0.86497,-0.77847 0.37482,-0.40365 0.63431,-0.8938 0.28832,-0.49015 0.49014,-1.12445 0.20183,-0.66315 0.40366,-1.61461 l 2.47956,-11.21572 q 0.37482,-1.6146 0.37482,-2.5084 0,-0.46132 -0.17299,-0.8073 -0.14416,-0.37482 -0.63431,-1.09563 h 8.30367 q -0.51898,0.40365 -0.89379,0.8073 -0.37482,0.37482 -0.63431,0.86497 -0.25949,0.49015 -0.46132,1.15329 -0.20182,0.63431 -0.40365,1.58577 l -0.92263,4.09417 5.88177,-5.88177 q 0.57664,-0.57664 0.86496,-0.8938 0.31716,-0.31715 0.46132,-0.49014 0.14416,-0.173 0.17299,-0.25949 0.0288,-0.0865 0.0288,-0.23066 0,-0.31715 -0.43249,-0.74964 z"
       inkscape:connector-curvature="0" /><path
       id="path1979"
       style="stroke-width:0.72080487"
       d="m 212.29979,182.56955 q -0.77847,-0.63431 -1.38394,-1.06679 -0.60548,-0.43249 -1.18212,-0.69198 -0.54781,-0.25949 -1.09563,-0.37482 -0.54781,-0.11532 -1.15328,-0.11532 -1.09563,0 -1.72994,0.49014 -0.6343,0.46132 -0.6343,1.26862 0,0.43248 0.11533,0.77847 0.11532,0.31715 0.46131,0.74964 0.37482,0.40365 1.03796,0.98029 0.66314,0.57664 1.7876,1.47044 0.89379,0.72081 1.49927,1.35512 0.63431,0.60547 0.98029,1.23978 0.37482,0.63431 0.51898,1.32628 0.173,0.66314 0.173,1.47044 0,1.52811 -0.60548,2.82556 -0.60548,1.26862 -1.7011,2.22008 -1.06679,0.92263 -2.56606,1.47044 -1.49928,0.51898 -3.25804,0.51898 -3.3157,0 -5.76644,-1.15329 l -0.54781,-4.123 q 0.95146,0.7208 1.72993,1.21095 0.77847,0.49015 1.47044,0.8073 0.69197,0.28832 1.35511,0.43248 0.66314,0.14416 1.35512,0.14416 1.38394,0 2.22008,-0.66314 0.83613,-0.69197 0.83613,-1.78759 0,-0.46132 -0.11533,-0.83614 -0.11533,-0.37481 -0.46131,-0.8073 -0.31716,-0.43248 -0.95147,-0.98029 -0.60547,-0.57665 -1.6146,-1.41278 -0.95146,-0.77847 -1.58577,-1.44161 -0.63431,-0.66314 -1.03796,-1.29745 -0.37482,-0.63431 -0.54781,-1.29745 -0.14416,-0.66314 -0.14416,-1.41277 0,-1.41278 0.54781,-2.56607 0.57664,-1.15329 1.6146,-1.96059 1.03796,-0.83613 2.5084,-1.26862 1.49928,-0.43248 3.31571,-0.43248 1.35511,0 2.45073,0.23066 1.12446,0.23066 2.33541,0.7208 z"
       inkscape:connector-curvature="0" /></g></g></svg>